<?xml version="1.0" encoding="utf-8"?>
<!-- Svg Vector Icons : http://www.onlinewebfonts.com/icon -->
<!DOCTYPE svg PUBLIC "-//W3C//DTD SVG 1.1//EN" "http://www.w3.org/Graphics/SVG/1.1/DTD/svg11.dtd">
<svg version="1.1" xmlns="http://www.w3.org/2000/svg" xmlns:xlink="http://www.w3.org/1999/xlink" x="0px" y="0px" viewBox="0 0 1000 1000" enable-background="new 0 0 1000 1000" xml:space="preserve">
<metadata> Svg Vector Icons : http://www.onlinewebfonts.com/icon </metadata>
<g><g transform="translate(0.000000,511.000000) scale(0.100000,-0.100000)"><path fill="#E5C3B8" d="M6901.2,5010.1C5688.3,4870.3,4723.6,3941,4536.5,2737.9c-108.3-695-504-1327.1-1100.6-1750.4c-275.6-198.9-702.9-378-1010.1-425.3c-612.3-94.5-1120.3-346.5-1541.7-767.9c-409.5-407.6-669.4-921.5-762-1506.2c-37.4-236.3-25.6-732.5,21.7-945.1c116.2-515.9,338.7-937.2,689.1-1305.4c403.6-423.3,923.4-702.9,1478.7-801.4c661.6-116.2,1587,3.9,2520.2,326.8c2400.1,827,4264.7,2855,4881,5304.3c350.5,1399.9,212.7,2396.2-447,3191.6C8698.8,4746.2,7785.3,5112.5,6901.2,5010.1z M5558.4,2434.7c70.9-72.9,70.9-141.8,2-403.6C5245.3,824.1,4414.4-52,3197.6-457.6C2918-552.2,2482.9-644.7,2412-627c-72.9,17.7-149.6,116.2-149.6,191s61,183.1,112.2,196.9c19.7,5.9,116.2,25.6,212.6,43.3C3904.5,42.5,4867.3,920.6,5176.4,2163c72.9,287.5,102.4,328.8,246.1,328.8C5487.5,2491.8,5515.1,2480,5558.4,2434.7z"/></g></g>
</svg>
